<svg width="28" height="50" viewBox="0 0 28 50" fill="none" xmlns="http://www.w3.org/2000/svg">
<path d="M14.4496 1.80544C19.0084 1.13008 23.2869 0.589185 27.9474 0C27.9474 3.36536 27.9474 5.76891 27.9474 8.00485C24.9922 8.81788 21.3886 8.90437 19.3418 10.679C17.8892 11.9384 18.538 15.4765 18.186 18.5454C21.6978 18.5454 24.6827 18.5454 28 18.5454C27.5116 21.8621 27.1045 24.6269 26.6556 27.6753C23.8156 27.6753 21.3241 27.6753 18.5688 27.6753C18.5688 35.2388 18.5688 42.4666 18.5688 50C15.3069 50 12.3171 50 8.83816 50C8.83816 42.7831 8.83816 35.4718 8.83816 27.8578C5.7956 27.7007 3.20115 27.5668 0.0923486 27.4064C0.246692 24.544 -0.552198 21.182 0.826669 19.4503C1.96149 18.025 5.67929 18.5334 8.57619 18.1409C8.99409 12.3318 7.28961 5.66291 14.4496 1.80544Z" fill="#FAFCFE"/>
</svg>
